# xmcd
#
# Track frame offsets:
#	150
#	20702
#	38633
#	69744
#	97240
#	120298
#	136297
#	163220
#	178700
#
# Disc length: 2564 seconds
#
# Revision: 2
# Processed by: cddbd v1.5.1PL2 Copyright (c) Steve Scherf et al.
# Submitted via: dBpowerAMP V4.0
#
DISCID=7c0a0209
DTITLE=Mark Kerr - One Drink Away from the Blues
DYEAR=2005
DGENRE=Blues
TTITLE0=Thick Side
TTITLE1=Low Down Dirty Shame
TTITLE2=Wishin Well
TTITLE3=Thinkin and a Drinkin
TTITLE4=The Thrill Is Gone
TTITLE5=Woman With No Shame
TTITLE6=One Drink Away From the Blues
TTITLE7=Elevator Love
TTITLE8=Country Side Blues
EXTD=
EXTT0=
EXTT1=
EXTT2=
EXTT3=
EXTT4=
EXTT5=
EXTT6=
EXTT7=
EXTT8=
PLAYORDER=
